<?xml version="1.0" standalone="no"?>
<!DOCTYPE svg PUBLIC "-//W3C//DTD SVG 20010904//EN"
 "http://www.w3.org/TR/2001/REC-SVG-20010904/DTD/svg10.dtd">
<svg version="1.0" xmlns="http://www.w3.org/2000/svg"
 width="920.000000pt" height="1052.000000pt" viewBox="0 0 920.000000 1052.000000"
 preserveAspectRatio="xMidYMid meet">

<g transform="translate(0.000000,1052.000000) scale(0.100000,-0.100000)"
fill="#000000" stroke="none">
<path d="M3820 10510 c-364 -45 -688 -306 -805 -650 -45 -131 -55 -215 -55
-446 l0 -214 -1197 0 c-1341 0 -1257 4 -1408 -73 -150 -78 -271 -223 -326
-392 -22 -67 -23 -87 -27 -457 l-4 -388 331 0 c309 0 331 -1 331 -17 0 -10 7
-92 15 -183 8 -91 19 -226 25 -300 5 -74 12 -160 15 -190 3 -30 21 -248 40
-485 19 -236 39 -482 44 -545 6 -63 13 -153 16 -200 3 -47 8 -101 10 -120 3
-19 14 -152 25 -295 11 -143 24 -305 30 -360 5 -55 11 -140 15 -190 3 -49 8
-110 10 -135 3 -25 12 -128 20 -230 8 -102 17 -212 20 -245 3 -33 16 -199 30
-370 14 -170 34 -418 45 -550 11 -132 38 -463 60 -735 22 -272 47 -574 55
-670 8 -96 19 -233 25 -305 6 -71 12 -157 15 -190 3 -33 19 -217 35 -410 32
-383 45 -453 109 -591 127 -271 354 -461 647 -542 l99 -27 2530 0 2530 0 100
28 c367 101 647 396 716 755 10 54 32 266 49 472 17 206 33 400 35 430 3 30
30 356 61 725 30 369 57 690 59 715 3 25 9 106 15 180 6 74 13 160 16 190 2
30 38 460 79 955 42 495 77 925 80 955 3 30 12 140 20 244 9 104 18 212 20
240 3 28 19 218 35 421 17 204 32 393 35 420 3 28 16 192 30 365 14 173 30
365 35 425 6 61 13 135 15 165 2 30 7 88 11 128 l6 72 330 0 329 0 -3 388 c-4
371 -5 390 -27 457 -69 212 -222 366 -438 443 -44 15 -154 17 -1270 19 l-1221
3 -4 253 c-4 237 -6 257 -31 342 -106 356 -380 617 -738 701 -67 16 -150 18
-829 20 -415 1 -784 -2 -820 -6z m1585 -682 c91 -48 154 -132 175 -232 6 -29
9 -128 8 -221 l-3 -170 -988 -3 -988 -2 3 202 c3 198 4 204 31 263 42 89 106
149 196 181 29 11 188 13 776 11 l740 -2 50 -27z"/>
</g>
</svg>
